<?xml version="1.0" encoding="UTF-8" standalone="no"?>
<svg width="1985px" height="344px" viewBox="0 0 1985 344" version="1.1" xmlns="http://www.w3.org/2000/svg" xmlns:xlink="http://www.w3.org/1999/xlink">
    <!-- Generator: Sketch 3.8.3 (29802) - http://www.bohemiancoding.com/sketch -->
    <title>Page 1</title>
    <desc>Created with Sketch.</desc>
    <defs></defs>
    <g id="Assets/Patterns" stroke="none" stroke-width="1" fill="none" fill-rule="evenodd">
        <g id="Dropdowns" transform="translate(-251.000000, -909.000000)">
            <g id="Page-1" transform="translate(251.000000, 908.000000)">
                <polygon id="Fill-1" fill="#005983" points="568.089497 290.825979 515.808692 290.825979 322.238172 96.724746 322.238172 290.825979 280.216218 290.825979 280.216218 54.1248852 332.400302 54.1248852 526.054646 248.342493 526.054646 54.1248852 568.089497 54.1248852"></polygon>
                <polygon id="Fill-2" fill="#005983" points="735.439013 290.846668 777.454519 290.846668 777.454519 54.1261782 735.439013 54.1261782"></polygon>
                <polygon id="Fill-3" fill="#005983" points="1210.28194 290.825979 944.828538 290.825979 944.828538 54.1248852 1200.4809 54.1248852 1200.4809 89.438353 986.856941 89.438353 986.856941 150.250964 1135.34913 150.250964 1135.34913 185.551501 986.856941 185.551501 986.856941 255.531907 1210.28194 255.531907"></polygon>
                <polygon id="Fill-4" fill="#005983" points="1704.74178 290.825979 1662.71337 290.825979 1662.71337 97.2807618 1661.66879 97.2807618 1529.98667 251.613935 1399.36849 97.2742965 1398.3239 97.2807618 1398.3239 290.825979 1356.2826 290.825979 1356.2826 54.1248852 1408.82133 54.1248852 1530.32842 197.169645 1652.37715 54.1248852 1704.74178 54.1248852"></polygon>
                <g id="Group-11" transform="translate(0.000000, 0.826912)" fill="#A6B4AC">
                    <g id="Group-7">
                        <path d="M127.446392,315.241537 C102.498879,274.180418 64.9905604,210.038178 44.3567942,173.987665 C64.1910019,138.990997 103.485431,70.1743456 127.446392,27.212428 L127.446392,0.34264171 C99.6488396,37.563373 30.8932617,127.398715 2.9538526,166.390938 C0.742170779,169.642984 0.000644805195,173.987665 0.000644805195,177.259107 L0.000644805195,178.338812 C0.000644805195,180.517618 0.742170779,183.776129 2.21877468,185.954936 C29.6616838,222.180011 98.5591188,307.560761 127.446392,343.831093 L127.446392,315.241537 Z" id="Fill-5"></path>
                    </g>
                    <g id="Group-10" transform="translate(1856.306017, 0.000000)">
                        <path d="M0.393131697,315.241537 C25.3406447,274.180418 62.8489629,210.038178 83.4891772,173.987665 C63.6549694,138.990997 24.3605408,70.1743456 0.393131697,27.212428 L0.393131697,0.34264171 C28.1906836,37.563373 96.9527096,127.398715 124.885671,166.390938 C127.097352,169.642984 127.845327,173.987665 127.845327,177.259107 L127.845327,178.338812 C127.845327,180.517618 127.097352,183.776129 125.627197,185.954936 C98.1713914,222.180011 29.2804044,307.560761 0.393131697,343.831093 L0.393131697,315.241537 Z" id="Fill-8"></path>
                    </g>
                </g>
                <polygon id="Fill-12" fill="#A6B4AC" points="1895.04442 322.586764 1895.04442 324.784966 1901.27969 324.784966 1901.27969 341.24562 1903.83312 341.24562 1903.83312 324.784966 1910.06839 324.784966 1910.06839 322.586764"></polygon>
                <polygon id="Fill-13" fill="#A6B4AC" points="1930.83885 322.586764 1925.44828 337.967713 1920.18667 322.586764 1915.62145 322.586764 1915.62145 341.24562 1918.12974 341.24562 1918.12974 324.552215 1924.00391 341.24562 1926.45417 341.24562 1932.56048 324.44877 1932.56048 341.24562 1935.08167 341.24562 1935.08167 322.586764"></polygon>
            </g>
        </g>
    </g>
</svg>